<?xml version="1.0" encoding="UTF-8" standalone="no"?>
<svg
   xmlns:dc="http://purl.org/dc/elements/1.1/"
   xmlns:cc="http://creativecommons.org/ns#"
   xmlns:rdf="http://www.w3.org/1999/02/22-rdf-syntax-ns#"
   xmlns:svg="http://www.w3.org/2000/svg"
   xmlns="http://www.w3.org/2000/svg"
   xmlns:sodipodi="http://sodipodi.sourceforge.net/DTD/sodipodi-0.dtd"
   xmlns:inkscape="http://www.inkscape.org/namespaces/inkscape"
   height="197.64816"
   width="172.51828"
   inkscape:version="1.0 (4035a4fb49, 2020-05-01)"
   sodipodi:docname="exchange-svgrepo-com.svg"
   xml:space="preserve"
   viewBox="0 0 172.51828 197.64816"
   y="0px"
   x="0px"
   id="Capa_1"
   version="1.1"><metadata
   id="metadata45"><rdf:RDF><cc:Work
       rdf:about=""><dc:format>image/svg+xml</dc:format><dc:type
         rdf:resource="http://purl.org/dc/dcmitype/StillImage" /><dc:title></dc:title></cc:Work></rdf:RDF></metadata><defs
   id="defs43" /><sodipodi:namedview
   inkscape:current-layer="g8"
   inkscape:window-maximized="1"
   inkscape:window-y="27"
   inkscape:window-x="70"
   inkscape:cy="82.96261"
   inkscape:cx="173.60352"
   inkscape:zoom="1.1387732"
   showgrid="false"
   id="namedview41"
   inkscape:window-height="704"
   inkscape:window-width="1296"
   inkscape:pageshadow="2"
   inkscape:pageopacity="0"
   guidetolerance="10"
   gridtolerance="10"
   objecttolerance="10"
   borderopacity="1"
   bordercolor="#666666"
   pagecolor="#ffffff" />
<g
   transform="translate(-71.396984,-267.41445)"
   id="g8">
	<g
   transform="matrix(0.42109887,0,0,0.40336318,54.486719,267.41456)"
   style="fill:#00ffff"
   id="g6">
		<path
   style="fill:#00ffff"
   id="path2"
   d="m 439.823,231.55 c -12.7,-7.6 -23,0 -27.1,5.2 -42.8,52.2 -147.1,57.4 -189.9,57.4 -2.1,0 -4.2,0 -5.2,0 v -44.9 c 0,-20 -21.9,-25.9 -33.4,-15.6 l -128.3,109.3 c -9.8,8.3 -9.8,23.3 -0.1,31.7 39.5,33.9 128.4,110.5 128.4,110.5 9.1,9.1 33.4,6.2 33.4,-15.6 v -41.7 c 0,0 0,0 0.1,-0.1 42.9,1.2 166.5,-10.6 230.5,-171 4.1,-9.5 0.1,-20.1 -8.4,-25.2 z m -218,154.4 c -12.5,0 -20.9,-1 -20.9,-1 -12.5,-2.5 -24,7.1 -24,19.8 v 19.8 l -77.2,-65.7 77.2,-65.7 v 19.8 c 0,11.5 8.3,19.8 18.8,20.9 1,0 10.4,1 27.1,1 38.6,0 98.1,-4.2 147.1,-25 -49,64.7 -110.6,76.1 -148.1,76.1 z" />
		<path
   style="fill:#00ffff"
   id="path4"
   d="m 77.323,253.15 c 42.8,-52.2 147.1,-57.4 189.9,-57.4 2.1,0 4.2,0 5.2,0 v 44.9 c 0,20 21.9,25.9 33.4,15.6 l 128.3,-109.2 c 9.8,-8.3 9.8,-23.3 0.1,-31.7 -39.5,-34 -128.5,-110.5 -128.5,-110.5 -9.1,-9.1 -33.4,-6.2 -33.4,15.6 v 41.7 c 0,0 0,0 -0.1,0.1 -42.9,-1.1 -166.5,10.7 -230.4,171.1 -4.2,9.4 -0.1,20 8.3,25 12.7,7.6 23,0 27.2,-5.2 z m 190.9,-149.2 c 12.5,0 20.9,1 20.9,1 12.5,2.5 24,-7.1 24,-19.8 v -19.8 l 77.2,65.7 -77.2,65.7 v -19.8 c 0,-11.5 -8.3,-19.8 -18.8,-20.9 -1,0 -10.4,-1 -27.1,-1 -38.6,0 -98.1,4.2 -147.1,25 49,-64.6 110.5,-76.1 148.1,-76.1 z" />
	</g>
</g>
<g
   transform="translate(-71.396984,-267.41445)"
   id="g10">
</g>
<g
   transform="translate(-71.396984,-267.41445)"
   id="g12">
</g>
<g
   transform="translate(-71.396984,-267.41445)"
   id="g14">
</g>
<g
   transform="translate(-71.396984,-267.41445)"
   id="g16">
</g>
<g
   transform="translate(-71.396984,-267.41445)"
   id="g18">
</g>
<g
   transform="translate(-71.396984,-267.41445)"
   id="g20">
</g>
<g
   transform="translate(-71.396984,-267.41445)"
   id="g22">
</g>
<g
   transform="translate(-71.396984,-267.41445)"
   id="g24">
</g>
<g
   transform="translate(-71.396984,-267.41445)"
   id="g26">
</g>
<g
   transform="translate(-71.396984,-267.41445)"
   id="g28">
</g>
<g
   transform="translate(-71.396984,-267.41445)"
   id="g30">
</g>
<g
   transform="translate(-71.396984,-267.41445)"
   id="g32">
</g>
<g
   transform="translate(-71.396984,-267.41445)"
   id="g34">
</g>
<g
   transform="translate(-71.396984,-267.41445)"
   id="g36">
</g>
<g
   transform="translate(-71.396984,-267.41445)"
   id="g38">
</g>
</svg>
